<?xml version="1.0" standalone="no"?>
<!DOCTYPE svg PUBLIC "-//W3C//DTD SVG 20010904//EN"
 "http://www.w3.org/TR/2001/REC-SVG-20010904/DTD/svg10.dtd">
<svg version="1.0" xmlns="http://www.w3.org/2000/svg"
 width="320.000000pt" height="320.000000pt" viewBox="0 0 320.000000 320.000000"
 preserveAspectRatio="xMidYMid meet">
<metadata>
Created by potrace 1.14, written by Peter Selinger 2001-2017
</metadata>
<g transform="translate(0.000000,320.000000) scale(0.100000,-0.100000)"
fill="#000000" stroke="none">
<path d="M1582 2341 c-30 -20 -32 -58 -32 -533 0 -421 2 -486 16 -506 20 -28
69 -30 84 -3 6 13 10 194 10 519 0 463 -1 500 -17 514 -18 16 -45 19 -61 9z"/>
<path d="M2360 2053 c-8 -2 -24 -9 -35 -13 -11 -5 -108 -48 -215 -95 -107 -48
-200 -91 -207 -97 -17 -13 -17 -63 0 -75 6 -6 55 -29 107 -53 52 -23 155 -69
229 -102 113 -51 138 -58 157 -49 13 6 27 23 30 37 10 38 -16 56 -196 134 -82
36 -150 68 -150 71 0 4 8 9 18 12 32 10 302 135 317 147 21 17 19 46 -5 70
-21 21 -25 22 -50 13z"/>
<path d="M776 1694 c-23 -23 -19 -59 17 -155 98 -256 278 -454 522 -575 120
-59 221 -88 361 -106 108 -13 136 -8 153 28 9 21 9 31 -3 49 -12 19 -27 23
-98 28 -398 32 -722 283 -848 658 -12 35 -26 70 -32 77 -14 17 -53 15 -72 -4z"/>
</g>
</svg>
