<?xml version="1.0" standalone="no"?>
<!DOCTYPE svg PUBLIC "-//W3C//DTD SVG 20010904//EN"
 "http://www.w3.org/TR/2001/REC-SVG-20010904/DTD/svg10.dtd">
<svg version="1.0" xmlns="http://www.w3.org/2000/svg"
 width="512.000000pt" height="512.000000pt" viewBox="0 0 512.000000 512.000000"
 preserveAspectRatio="xMidYMid meet">
<metadata>
Created by potrace 1.14, written by Peter Selinger 2001-2017
</metadata>
<g transform="translate(0.000000,512.000000) scale(0.100000,-0.100000)"
fill="#000000" stroke="none">
<path d="M2509 3724 l-24 -26 -3 -786 c-3 -911 -8 -855 85 -860 50 -3 54 -1
73 30 20 32 20 45 18 831 l-3 799 -24 19 c-35 28 -92 25 -122 -7z"/>
<path d="M3745 3276 c-16 -7 -52 -23 -80 -35 -27 -12 -63 -28 -80 -36 -16 -7
-55 -25 -86 -39 -31 -14 -59 -26 -62 -26 -4 0 -46 -18 -94 -41 -98 -45 -97
-45 -204 -92 -42 -19 -86 -45 -97 -58 -24 -25 -29 -75 -9 -101 11 -14 118 -69
247 -126 25 -11 112 -50 194 -86 81 -37 169 -76 195 -87 25 -11 60 -27 78 -35
52 -23 88 -18 118 18 28 33 29 74 2 106 -10 13 -188 102 -203 102 -3 0 -29 11
-57 24 -29 14 -101 47 -162 74 -60 27 -110 53 -112 58 -2 5 18 18 45 28 46 19
92 39 245 110 43 20 80 36 82 36 2 0 37 16 79 35 56 26 79 43 91 66 42 80 -39
145 -130 105z"/>
<path d="M1241 2709 c-39 -38 -39 -58 -2 -168 90 -268 207 -463 401 -666 49
-51 66 -67 160 -146 149 -125 416 -261 610 -309 148 -38 394 -67 456 -55 68
12 93 98 43 151 -17 18 -35 22 -122 27 -95 6 -219 24 -312 45 -80 18 -294 101
-315 122 -3 3 -34 20 -69 38 -185 96 -399 303 -518 500 -65 107 -113 198 -113
214 0 6 -11 34 -24 62 -13 28 -32 79 -41 114 -29 101 -94 131 -154 71z"/>
</g>
</svg>
